<svg xmlns="http://www.w3.org/2000/svg" viewBox="0 0 512 512" width="512" height="512">
  <rect width="512" height="512" rx="80" fill="#111113"/>
  <g transform="translate(256,256) scale(8)">
    <path d="M0-28C-7 -17.5 -16 -12.5 -16 -4a16 16 0 0032 0c0-9-8.5-14-16-24z" fill="url(#g1)"/>
    <path d="M0-15C-3 -10 -8 -8 -8 -1.5a8 8 0 0016 0c0-5-5-8-8-13.5z" fill="#111113"/>
    <path d="M0-6C-1.5 -3.5 -4 -2 -4 1.25a4 4 0 008 0c0-2.5-2.5-4-4-7.25z" fill="url(#g2)"/>
  </g>
  <defs>
    <linearGradient id="g1" x1="0" y1="-28" x2="0" y2="12" gradientUnits="userSpaceOnUse">
      <stop stop-color="#ef4444"/>
      <stop offset="1" stop-color="#f97316"/>
    </linearGradient>
    <linearGradient id="g2" x1="0" y1="-6" x2="0" y2="5" gradientUnits="userSpaceOnUse">
      <stop stop-color="#fbbf24"/>
      <stop offset="1" stop-color="#f97316"/>
    </linearGradient>
  </defs>
</svg>
